<svg width="61" height="39" viewBox="0 0 61 39" fill="none" xmlns="http://www.w3.org/2000/svg">
<path d="M17.9525 0.75C19.6812 0.75 21.2788 0.88125 22.745 1.275C24.2075 1.5375 25.4112 2.085 26.48 2.74125C27.5525 3.40125 28.3437 4.33875 28.8837 5.5425C29.4087 6.7425 29.6937 8.20875 29.6937 9.80625C29.6937 11.6662 29.2962 13.2637 28.3587 14.4637C27.5525 15.6637 26.2363 16.7362 24.62 17.5275C26.8925 18.1875 28.6213 19.3875 29.675 20.985C30.7288 22.5825 31.4038 24.5737 31.4038 26.8462C31.4038 28.7062 31.01 30.3037 30.335 31.6387C29.6616 32.9825 28.6512 34.1285 27.4025 34.965C26.2025 35.7712 24.7363 36.4275 23.1388 36.825C21.5739 37.2383 19.9646 37.4599 18.3462 37.485L0.5 37.5112V0.75H17.9525ZM16.8837 15.6675C18.3462 15.6675 19.5463 15.2737 20.4725 14.5987C21.395 13.9237 21.8038 12.735 21.8038 11.2725C21.8038 10.4625 21.6725 9.675 21.41 9.14625C21.1259 8.61036 20.7136 8.15303 20.21 7.815C19.666 7.51838 19.0845 7.29638 18.4813 7.155C17.8213 7.02375 17.1463 7.02375 16.355 7.02375H8.6375V15.6862C8.6375 15.6675 16.8837 15.6675 16.8837 15.6675ZM17.2775 31.3912C18.0837 31.3912 18.875 31.26 19.55 31.1287C20.21 30.9975 20.885 30.7312 21.41 30.3187C21.935 29.9062 22.3475 29.5125 22.745 28.8562C23.0075 28.1962 23.27 27.39 23.27 26.4525C23.27 24.5925 22.745 23.2575 21.6725 22.32C20.6037 21.5137 19.1375 21.12 17.4087 21.12H8.6375V31.3725H17.2812L17.2775 31.3912ZM42.995 31.26C44.0675 32.3287 45.6612 32.8575 47.7875 32.8575C49.25 32.8575 50.585 32.46 51.6575 31.785C52.7263 30.9787 53.3825 30.1875 53.645 29.385H60.17C59.0975 32.5762 57.5 34.8487 55.3775 36.315C53.255 37.6462 50.7163 38.4375 47.6525 38.4375C45.6934 38.4462 43.7503 38.0835 41.9262 37.3687C40.2846 36.7585 38.8197 35.7509 37.6625 34.4362C36.4282 33.2103 35.5117 31.7017 34.9925 30.0412C34.3362 28.3125 34.055 26.4525 34.055 24.3112C34.055 22.32 34.3175 20.4412 34.9925 18.7125C35.6675 16.9875 36.59 15.5175 37.7937 14.1862C38.9937 12.9862 40.46 11.9137 42.0575 11.2537C43.8388 10.5445 45.739 10.1818 47.6562 10.185C49.9287 10.185 51.92 10.5787 53.6488 11.5162C55.3738 12.4537 56.7125 13.5112 57.7812 15.1087C58.85 16.5712 59.6413 18.3 60.185 20.1637C60.4475 22.0237 60.5788 23.8987 60.4475 26.025H41.135C41.135 28.2 41.9225 30.1875 42.995 31.26ZM51.395 17.265C50.4575 16.3275 48.9875 15.7987 47.2587 15.7987C46.0587 15.7987 45.1362 16.0612 44.33 16.4587C43.5237 16.8525 42.995 17.3962 42.47 17.9212C41.9798 18.436 41.6535 19.0846 41.5325 19.785C41.3975 20.4412 41.27 20.985 41.27 21.51H53.255C52.9925 19.5375 52.3212 18.2025 51.395 17.265ZM39.6687 3.285H54.5863V6.87375H39.6687V3.285Z" fill="#EA5A0F"/>
</svg>
