<svg width="51" height="50" viewBox="0 0 51 50" fill="none" xmlns="http://www.w3.org/2000/svg">
<path d="M25.5 0.5C22.217 0.5 18.9661 1.14664 15.9329 2.40301C12.8998 3.65938 10.1438 5.50087 7.82233 7.82233C3.13392 12.5107 0.5 18.8696 0.5 25.5C0.5 36.55 7.675 45.925 17.6 49.25C18.85 49.45 19.25 48.675 19.25 48V43.775C12.325 45.275 10.85 40.425 10.85 40.425C9.7 37.525 8.075 36.75 8.075 36.75C5.8 35.2 8.25 35.25 8.25 35.25C10.75 35.425 12.075 37.825 12.075 37.825C14.25 41.625 17.925 40.5 19.35 39.9C19.575 38.275 20.225 37.175 20.925 36.55C15.375 35.925 9.55 33.775 9.55 24.25C9.55 21.475 10.5 19.25 12.125 17.475C11.875 16.85 11 14.25 12.375 10.875C12.375 10.875 14.475 10.2 19.25 13.425C21.225 12.875 23.375 12.6 25.5 12.6C27.625 12.6 29.775 12.875 31.75 13.425C36.525 10.2 38.625 10.875 38.625 10.875C40 14.25 39.125 16.85 38.875 17.475C40.5 19.25 41.45 21.475 41.45 24.25C41.45 33.8 35.6 35.9 30.025 36.525C30.925 37.3 31.75 38.825 31.75 41.15V48C31.75 48.675 32.15 49.475 33.425 49.25C43.35 45.9 50.5 36.55 50.5 25.5C50.5 22.217 49.8534 18.9661 48.597 15.9329C47.3406 12.8998 45.4991 10.1438 43.1777 7.82233C40.8562 5.50087 38.1002 3.65938 35.0671 2.40301C32.0339 1.14664 28.783 0.5 25.5 0.5Z" fill="#EA5A0F"/>
</svg>