<svg width="61" height="61" viewBox="0 0 61 61" fill="none" xmlns="http://www.w3.org/2000/svg">
<path d="M30.5 0.5C22.3587 0.5 21.335 0.5375 18.1362 0.68C14.9375 0.83 12.7587 1.3325 10.85 2.075C8.84785 2.82807 7.03434 4.00935 5.53625 5.53625C4.01029 7.03511 2.82915 8.8484 2.075 10.85C1.3325 12.755 0.82625 14.9375 0.68 18.125C0.5375 21.3312 0.5 22.3513 0.5 30.5038C0.5 38.6488 0.5375 39.6688 0.68 42.8675C0.83 46.0625 1.3325 48.2412 2.075 50.15C2.84375 52.1225 3.8675 53.795 5.53625 55.4637C7.20125 57.1325 8.87375 58.16 10.8463 58.925C12.7587 59.6675 14.9338 60.1737 18.1287 60.32C21.3313 60.4625 22.3512 60.5 30.5 60.5C38.6488 60.5 39.665 60.4625 42.8675 60.32C46.0588 60.17 48.245 59.6675 50.1538 58.925C52.1546 58.1716 53.9668 56.9903 55.4637 55.4637C57.1325 53.795 58.1562 52.1225 58.925 50.15C59.6637 48.2412 60.17 46.0625 60.32 42.8675C60.4625 39.6688 60.5 38.6488 60.5 30.5C60.5 22.3512 60.4625 21.3313 60.32 18.1287C60.17 14.9375 59.6637 12.755 58.925 10.85C58.171 8.84834 56.9898 7.03503 55.4637 5.53625C53.9661 4.00878 52.1525 2.82742 50.15 2.075C48.2375 1.3325 46.055 0.82625 42.8638 0.68C39.6613 0.5375 38.645 0.5 30.4925 0.5H30.5038H30.5ZM27.8113 5.9075H30.5038C38.5138 5.9075 39.4625 5.93375 42.6237 6.08C45.5487 6.21125 47.1387 6.7025 48.1963 7.11125C49.595 7.655 50.5962 8.3075 51.6462 9.3575C52.6963 10.4075 53.345 11.405 53.8888 12.8075C54.3013 13.8612 54.7887 15.4513 54.92 18.3763C55.0662 21.5375 55.0962 22.4862 55.0962 30.4925C55.0962 38.4987 55.0662 39.4512 54.92 42.6125C54.7887 45.5375 54.2975 47.1237 53.8888 48.1813C53.4078 49.4838 52.6401 50.6616 51.6425 51.6275C50.5925 52.6775 49.595 53.3263 48.1925 53.87C47.1425 54.2825 45.5525 54.77 42.6237 54.905C39.4625 55.0475 38.5138 55.0813 30.5038 55.0813C22.4938 55.0813 21.5413 55.0475 18.38 54.905C15.455 54.77 13.8687 54.2825 12.8112 53.87C11.5081 53.3897 10.3292 52.6234 9.36125 51.6275C8.36282 50.6601 7.59396 49.4812 7.11125 48.1775C6.7025 47.1237 6.21125 45.5337 6.08 42.6087C5.9375 39.4475 5.9075 38.4987 5.9075 30.485C5.9075 22.475 5.9375 21.53 6.08 18.3687C6.215 15.4437 6.7025 13.8538 7.115 12.7963C7.65875 11.3975 8.31125 10.3962 9.36125 9.34625C10.4113 8.29625 11.4087 7.6475 12.8112 7.10375C13.8687 6.69125 15.455 6.20375 18.38 6.06875C21.1475 5.94125 22.22 5.90375 27.8113 5.9V5.9075ZM46.5163 10.8875C46.0435 10.8875 45.5754 10.9806 45.1386 11.1615C44.7018 11.3425 44.305 11.6076 43.9707 11.9419C43.6364 12.2762 43.3712 12.6731 43.1903 13.1098C43.0094 13.5466 42.9162 14.0147 42.9162 14.4875C42.9162 14.9603 43.0094 15.4284 43.1903 15.8652C43.3712 16.3019 43.6364 16.6988 43.9707 17.0331C44.305 17.3674 44.7018 17.6325 45.1386 17.8135C45.5754 17.9944 46.0435 18.0875 46.5163 18.0875C47.471 18.0875 48.3867 17.7082 49.0618 17.0331C49.737 16.358 50.1162 15.4423 50.1162 14.4875C50.1162 13.5327 49.737 12.617 49.0618 11.9419C48.3867 11.2668 47.471 10.8875 46.5163 10.8875ZM30.5038 15.095C28.4603 15.0631 26.4309 15.4381 24.5337 16.198C22.6365 16.958 20.9094 18.0878 19.4531 19.5216C17.9967 20.9554 16.8401 22.6646 16.0507 24.5497C15.2612 26.4348 14.8546 28.4581 14.8546 30.5019C14.8546 32.5456 15.2612 34.5689 16.0507 36.454C16.8401 38.3391 17.9967 40.0483 19.4531 41.4822C20.9094 42.916 22.6365 44.0458 24.5337 44.8057C26.4309 45.5657 28.4603 45.9406 30.5038 45.9088C34.5483 45.8456 38.4058 44.1947 41.2437 41.3122C44.0815 38.4297 45.6721 34.5469 45.6721 30.5019C45.6721 26.4569 44.0815 22.574 41.2437 19.6916C38.4058 16.8091 34.5483 15.1581 30.5038 15.095ZM30.5038 20.4988C33.1562 20.4988 35.7001 21.5525 37.5757 23.428C39.4513 25.3036 40.505 27.8475 40.505 30.5C40.505 33.1525 39.4513 35.6964 37.5757 37.572C35.7001 39.4475 33.1562 40.5013 30.5038 40.5013C27.8513 40.5013 25.3074 39.4475 23.4318 37.572C21.5562 35.6964 20.5025 33.1525 20.5025 30.5C20.5025 27.8475 21.5562 25.3036 23.4318 23.428C25.3074 21.5525 27.8513 20.4988 30.5038 20.4988Z" fill="#EA5A0F"/>
</svg>